<svg width="652" height="652" viewBox="0 0 652 652" fill="none" xmlns="http://www.w3.org/2000/svg">
<path d="M140.725 367.249C38.4042 426.325 38.4068 522.106 140.73 581.181C243.055 640.256 408.953 640.256 511.274 581.181C613.595 522.106 613.592 426.326 511.269 367.249C408.945 308.174 243.046 308.174 140.725 367.249Z" fill="#F5F5F5"/>
<path d="M321.13 613.245L138.031 507.878L321.133 402.078L504.235 507.445L321.13 613.245Z" fill="#E0E0E0"/>
<path d="M321.131 591.716V451.909L173.646 367.079V506.884L321.131 591.716Z" fill="#E52020"/>
<path d="M321.131 451.909L468.618 366.708V506.514L321.131 591.716V451.909Z" fill="#E52020"/>
<path opacity="0.15" d="M321.131 451.909L468.618 366.708V506.514L321.131 591.716V451.909Z" fill="white"/>
<path d="M321.131 451.909L169.803 364.825L321.133 277.384L472.463 364.469L321.131 451.909Z" fill="#E52020"/>
<path opacity="0.3" d="M321.131 451.909L169.803 364.825L321.133 277.384L472.463 364.469L321.131 451.909Z" fill="white"/>
<path d="M321.131 451.909V476.873L169.803 389.822V364.825L321.131 451.909Z" fill="#E52020"/>
<path d="M472.463 364.469L321.131 451.909V476.873L472.463 389.451V364.469Z" fill="#E52020"/>
<path opacity="0.15" d="M472.463 364.469L321.131 451.909V476.873L472.463 389.451V364.469Z" fill="white"/>
<path opacity="0.1" d="M173.646 392.041L173.647 397.528L321.131 482.36V476.873L173.646 392.041ZM468.62 391.671L321.131 476.873V482.36L468.618 397.159L468.62 391.671Z" fill="black"/>
<path d="M267.291 384.062L287.475 395.715L374.974 345.231L354.792 333.58L267.291 384.062Z" fill="#E52020"/>
<path opacity="0.2" d="M369.929 348.152L374.974 345.231L354.792 333.58L354.812 339.452L369.929 348.152Z" fill="black"/>
<path opacity="0.1" d="M272.338 386.975L354.791 339.405L354.792 333.58L267.291 384.062L272.338 386.975Z" fill="black"/>
<path d="M352.578 532.827L343.05 502.742L350.331 498.537L354.448 513.041C356.088 518.751 356.734 521.124 356.773 521.253L356.888 521.187C356.924 521.013 357.575 517.891 359.176 510.461L363.331 491.03L370.267 487.026L360.737 528.112L352.578 532.827Z" fill="#FAFAFA"/>
<path d="M384.684 477.994C392.84 473.283 398.75 477.497 398.75 488.377C398.75 499.256 392.84 510.293 384.684 515.004C376.525 519.713 370.618 515.499 370.618 504.621C370.618 493.74 376.525 482.703 384.684 477.994ZM384.684 506.917C389.107 504.365 392.307 498.45 392.307 492.094C392.307 485.69 389.107 483.472 384.684 486.026C380.263 488.577 377.058 494.495 377.058 500.899C377.058 507.256 380.262 509.471 384.684 506.917Z" fill="#FAFAFA"/>
<path d="M414.655 469.333V496.988L408.249 500.685V473.03L400.092 477.741V469.81L422.813 456.692V464.622L414.655 469.333Z" fill="#FAFAFA"/>
<path d="M426.133 454.774L445.576 443.549V451.479L432.537 459.004V465.107L442.146 459.56V466.676L432.537 472.221V478.728L445.767 471.091V479.022L426.132 490.359V454.774H426.133Z" fill="#FAFAFA"/>
<path d="M521.629 286.631C523.78 287.33 532.335 288.965 532.684 285.447C532.787 284.41 532.245 283.431 531.713 282.535C528.777 277.586 525.316 272.516 520.043 270.217C514.571 267.834 507.991 267.269 502.15 266.239C495.545 265.074 488.937 263.804 482.53 261.796C481.808 261.571 481.042 261.332 480.311 261.524C478.824 261.914 478.327 263.789 478.393 265.325C478.584 269.761 481.218 273.815 484.621 276.668C486.453 278.204 488.523 279.456 490.733 280.366C493.533 281.521 496.302 281.811 499.212 282.325C502.367 282.882 505.432 283.886 508.634 284.367C509.675 284.524 521.629 286.1 521.629 286.631Z" fill="#F0997A"/>
<path d="M474.673 300.121C451.721 281.341 428.768 262.562 405.815 243.783C435.998 222.289 456.549 197.173 471.64 163.331C494.593 182.11 517.545 200.89 540.498 219.669C525.408 253.511 504.855 278.628 474.673 300.121Z" fill="#FAFAFA" stroke="#FF0000" stroke-miterlimit="10"/>
<path d="M482.673 230.932C473.078 223.082 468.282 219.157 458.687 211.307C466.252 201.288 469.594 195.905 475.222 184.599C484.817 192.449 489.614 196.374 499.208 204.225C493.58 215.529 490.238 220.912 482.673 230.932Z" stroke="#37474F" stroke-miterlimit="10"/>
<path d="M451.357 262.706C441.763 254.856 436.966 250.931 427.372 243.081C437.339 235.326 441.954 230.984 450.276 221.586C459.871 229.436 464.667 233.361 474.262 241.211C465.939 250.609 461.325 254.952 451.357 262.706Z" stroke="#37474F" stroke-miterlimit="10"/>
<path d="M518.126 232.034C511.383 226.518 508.012 223.759 501.271 218.243C500.652 217.737 500.478 216.756 500.874 216.047C500.93 215.948 500.958 215.897 501.014 215.798C501.409 215.088 502.226 214.92 502.845 215.426C509.587 220.942 512.958 223.7 519.7 229.217C520.318 229.723 520.505 230.712 520.108 231.421C520.052 231.52 520.025 231.571 519.969 231.67C519.572 232.379 518.744 232.54 518.126 232.034Z" fill="#E0E0E0"/>
<path d="M520.712 244.526C511.259 236.792 506.532 232.924 497.079 225.19C496.461 224.684 496.313 223.721 496.743 223.032C496.803 222.936 496.833 222.887 496.894 222.79C497.322 222.101 498.166 221.95 498.784 222.456C508.236 230.19 512.963 234.058 522.416 241.792C523.034 242.298 523.193 243.269 522.766 243.958C522.706 244.054 522.676 244.102 522.614 244.199C522.184 244.887 521.33 245.032 520.712 244.526Z" fill="#E0E0E0"/>
<path d="M517.64 249.181C508.187 241.447 503.46 237.58 494.007 229.846C493.389 229.34 493.259 228.388 493.71 227.715C493.774 227.62 493.805 227.573 493.868 227.479C494.318 226.805 495.178 226.667 495.798 227.172C505.25 234.907 509.977 238.774 519.43 246.508C520.048 247.014 520.19 247.974 519.74 248.647C519.676 248.742 519.645 248.789 519.581 248.884C519.13 249.556 518.258 249.687 517.64 249.181Z" fill="#E0E0E0"/>
<path d="M490.281 268.365C483.538 262.849 480.167 260.091 473.425 254.573C472.807 254.067 472.772 253.195 473.342 252.619C473.421 252.538 473.462 252.497 473.541 252.417C474.11 251.84 475.068 251.779 475.686 252.285C482.429 257.801 485.8 260.559 492.542 266.076C493.16 266.582 493.205 267.463 492.636 268.041C492.556 268.122 492.516 268.162 492.436 268.243C491.866 268.818 490.899 268.87 490.281 268.365Z" fill="#E0E0E0"/>
<path d="M491.171 279.486C481.718 271.752 476.991 267.885 467.537 260.151C466.919 259.645 466.906 258.794 467.503 258.245C467.587 258.168 467.629 258.129 467.713 258.052C468.309 257.502 469.29 257.463 469.908 257.969C479.361 265.703 484.088 269.571 493.542 277.305C494.161 277.811 494.183 278.671 493.586 279.22C493.503 279.297 493.461 279.336 493.376 279.413C492.779 279.962 491.789 279.992 491.171 279.486Z" fill="#E0E0E0"/>
<path d="M486.96 283.164C477.508 275.43 472.781 271.562 463.328 263.827C462.71 263.321 462.711 262.486 463.328 261.957C463.414 261.882 463.457 261.845 463.545 261.77C464.159 261.239 465.155 261.216 465.773 261.721C475.226 269.455 479.953 273.322 489.407 281.058C490.025 281.564 490.033 282.409 489.417 282.939C489.331 283.014 489.287 283.052 489.201 283.126C488.584 283.655 487.58 283.67 486.96 283.164Z" fill="#E0E0E0"/>
<path d="M476.119 218.646C474.99 210.621 474.318 206.537 472.747 198.248C475.578 197.718 476.98 197.444 479.755 196.883C480.663 201.271 481.085 203.449 481.868 207.77C491.097 204.011 495.486 201.995 503.769 197.757C505.086 200.982 505.733 202.588 507 205.789C495.503 211.382 489.302 213.986 476.119 218.646Z" fill="#FF0000"/>
<path d="M611.094 322.855C604.952 320.094 585.407 318.974 574.642 316.675C561.564 313.883 555.138 309.383 544.939 297.016C534.73 284.65 532.537 282.038 529.144 277.906C526.717 274.952 526.463 273.304 515.672 273.11C504.871 272.906 490.76 273.972 487.182 274.358C483.604 274.733 480.017 274.891 473.159 277.442C466.312 279.991 462.544 281.273 459.474 282.98C456.403 284.687 455.299 290.418 454.109 293.922C452.918 297.425 452.59 300.366 455.103 301.152C457.606 301.939 462.544 301.722 466.79 296.15L470.567 295.08C470.567 295.08 462.525 301.276 461.282 303.81C460.049 306.333 459.588 311.292 461.277 313.916C462.964 316.54 465.606 320.466 465.606 320.466C465.606 320.466 463.786 325.045 467.321 328.714C470.847 332.373 473.112 334.466 473.112 334.466C473.112 334.466 470.503 336.067 468.422 338.599C466.385 341.072 468.686 344.642 474.112 344.68C478.384 344.712 485.168 341.098 490.282 339.901C495.397 338.714 502.804 336.083 506.549 337.367C507.75 337.782 510.194 339.601 512.437 340.97C514.68 342.34 516.713 343.252 519.28 345.285C524.406 349.351 527.285 353.915 536.129 355.777C544.981 357.63 550.443 356.634 557.731 359.548C562.52 361.464 610.744 383.722 611.872 384.304C625.724 391.471 636.278 382.758 635.489 364.774C634.701 346.783 625.319 329.25 611.094 322.855ZM472.746 314.557L472.195 313.523L477.685 308.469C477.685 308.469 482.595 308.026 486.62 308.078C482.957 308.687 481.076 309.484 479.399 310.578C477.285 311.965 472.746 314.557 472.746 314.557ZM483.21 327.97C479.173 329.825 477.627 331.104 477.627 331.104L476.903 327.847C476.903 327.847 481.24 325.425 482.193 325.231C483.157 325.046 492.12 324.204 495.44 323.611C489.042 325.302 486.182 326.601 483.21 327.97Z" fill="#FFBDA7"/>
<path d="M578.368 366.301C574.532 364 570.849 362.005 565.71 358.63C564.123 357.588 561.176 355.876 559.346 355.377C557.858 354.971 556.29 354.963 554.752 355.069C550.575 355.354 546.32 356.438 542.172 356.681C542.62 356.725 543.026 356.791 543.415 356.868C548.473 357.386 552.663 357.523 557.733 359.551C560.522 360.667 578.041 368.681 592.414 375.296C592.414 375.296 582.18 368.587 578.368 366.301Z" fill="#F0997A"/>
<path d="M501.809 286.756C496.974 286.503 492.163 286.115 487.316 285.94C485.718 285.864 483.95 285.935 482.381 286.561C479.97 287.561 477.8 288.978 475.759 290.573C472.649 291.987 468.245 293.32 465.761 293.661C462.495 294.108 459.192 292.306 459.447 292.599C459.704 292.893 461.796 294.808 460.461 297.665C459.647 299.408 458.566 300.773 457.195 301.481C459.857 301.55 463.526 300.436 466.791 296.153L470.568 295.082C470.568 295.082 478.217 289.128 482.685 287.409C484.149 286.864 485.675 286.806 487.286 286.894C492.11 287.074 496.962 287.278 501.8 287.226C503.41 287.145 505.061 287.226 506.63 286.823C505.03 286.999 503.416 286.838 501.809 286.756ZM472.194 313.523L477.684 308.469C480.761 308.203 483.747 308.062 486.619 308.078C490.698 307.204 499.132 305.372 501.54 302.782C497.894 304.39 493.164 305.937 488.103 305.861C483.041 305.785 479.429 304.828 477.046 306.495C474.664 308.161 470.552 312.715 470.131 313.345C468.592 315.64 466.052 317.035 465.607 320.468C466.503 318.288 472.749 314.559 472.749 314.559L472.194 313.523ZM483.344 323.459C481.864 323.795 477.866 325.67 476.21 326.626C474.553 327.582 475.859 329.496 473.863 330.468C471.867 331.439 467.668 329.068 467.668 329.068V329.07C470.988 332.499 473.111 334.471 473.111 334.471L477.634 331.109C477.774 330.384 477.531 329.298 476.905 327.849C476.905 327.849 481.241 325.428 482.196 325.232C483.159 325.047 492.123 324.206 495.443 323.612C497.815 323.233 502.319 320.521 503.056 317.158C499.201 320.725 498.768 321.696 494.582 322.355C490.394 323.014 484.824 323.122 483.344 323.459Z" fill="#F0997A"/>
<path d="M481.304 291.078C481.36 291.014 481.293 290.778 481.201 290.853C479.787 291.993 478.942 293.609 478.492 295.351C477.942 297.48 478.234 299.582 478.607 301.713C478.612 301.743 478.641 301.718 478.638 301.697C478.424 299.728 478.533 297.643 478.96 295.707C479.336 294.002 480.144 292.389 481.304 291.078ZM481.297 293.435C480.979 294.005 480.719 294.606 480.405 295.179C480.255 295.451 480.101 295.72 479.94 295.985C479.77 296.262 479.654 296.563 479.542 296.867C479.518 296.93 479.558 297.126 479.654 297.037C479.887 296.819 480.1 296.59 480.262 296.313C480.425 296.034 480.582 295.751 480.732 295.466C481.038 294.885 481.345 294.291 481.545 293.665C481.581 293.543 481.396 293.257 481.297 293.435ZM477.937 292.869C477.338 293.357 477.183 294.145 477.102 294.875C477.05 295.349 477.034 295.823 477.04 296.3C477.046 296.848 477.141 297.406 477.209 297.95C477.221 298.044 477.312 298.004 477.311 297.926C477.299 297.058 477.405 296.185 477.467 295.319C477.522 294.574 477.626 293.785 478.144 293.204C478.256 293.079 478.098 292.738 477.937 292.869Z" fill="#F0997A"/>
<path d="M479.961 316.406C479.825 315.851 479.805 315.265 479.816 314.694C479.818 314.595 479.645 314.426 479.605 314.587C479.458 315.172 479.488 315.761 479.611 316.346C479.745 316.989 480.006 317.622 480.447 318.116C480.554 318.236 480.586 318.009 480.554 317.939C480.317 317.446 480.091 316.941 479.961 316.406ZM484.045 316.421C484.002 316.182 483.952 315.945 483.897 315.707C483.783 315.218 483.618 314.736 483.441 314.267C483.415 314.199 483.347 314.102 483.261 314.131C483.175 314.16 483.18 314.28 483.201 314.347C483.34 314.789 483.443 315.237 483.545 315.688C483.597 315.923 483.643 316.159 483.682 316.395C483.723 316.645 483.759 316.923 483.862 317.154C483.906 317.253 484.047 317.289 484.082 317.165C484.15 316.941 484.085 316.649 484.045 316.421ZM482.005 316.233C481.896 315.628 481.764 315.025 481.611 314.43C481.469 313.871 481.341 313.281 481.09 312.76C481.023 312.622 480.764 312.537 480.791 312.772C480.862 313.358 481.086 313.937 481.221 314.51C481.365 315.112 481.486 315.718 481.587 316.328C481.786 317.536 481.83 318.781 482.078 319.978C482.1 320.081 482.236 320.161 482.262 320.015C482.376 319.378 482.306 318.712 482.248 318.074C482.193 317.456 482.116 316.842 482.005 316.233Z" fill="#F0997A"/>
<path d="M486.057 333.065C485.87 332.17 485.714 331.122 485.081 330.415C484.933 330.25 484.839 330.466 484.879 330.603C485.004 331.028 485.201 331.428 485.312 331.863C485.418 332.279 485.492 332.702 485.57 333.124C485.757 334.129 485.902 335.204 486.31 336.149C486.358 336.26 486.507 336.27 486.518 336.132C486.557 335.646 486.461 335.129 486.37 334.652C486.268 334.123 486.168 333.593 486.057 333.065ZM484.428 334.321C484.329 334.19 484.227 334.061 484.132 333.927C483.952 333.673 483.805 333.4 483.699 333.107C483.682 333.061 483.636 333.008 483.583 333.028C483.531 333.049 483.518 333.128 483.531 333.176C483.623 333.519 483.759 333.864 483.956 334.162C484.146 334.449 484.399 334.735 484.711 334.893C484.796 334.936 484.79 334.751 484.76 334.715C484.652 334.58 484.532 334.458 484.428 334.321ZM487.694 332.862C487.588 332.29 487.412 331.726 487.219 331.178C487.182 331.075 487.076 330.951 486.955 330.971C486.829 330.992 486.826 331.138 486.853 331.234C487.005 331.769 487.104 332.313 487.191 332.86C487.234 333.128 487.268 333.396 487.293 333.665C487.307 333.821 487.345 333.96 487.376 334.112C487.41 334.273 487.423 334.406 487.512 334.549C487.552 334.615 487.674 334.691 487.74 334.613C487.842 334.494 487.824 334.359 487.833 334.21C487.842 334.053 487.852 333.913 487.834 333.756C487.797 333.458 487.751 333.159 487.694 332.862Z" fill="#F0997A"/>
<path d="M482.142 276.897C480.898 279.255 480.504 281.997 480.868 284.625C480.88 284.711 480.987 284.761 480.991 284.644C481.081 282.08 481.632 279.596 482.498 277.186C482.569 276.989 482.275 276.644 482.142 276.897ZM479.747 279.162C479.534 279.519 479.421 279.966 479.333 280.369C479.243 280.785 479.165 281.252 479.243 281.674C479.258 281.75 479.389 281.871 479.425 281.741C479.477 281.551 479.475 281.348 479.503 281.153C479.53 280.948 479.558 280.743 479.599 280.541C479.64 280.346 479.689 280.153 479.749 279.962C479.811 279.765 479.895 279.578 479.955 279.381C479.977 279.308 479.954 279.216 479.901 279.163C479.859 279.12 479.784 279.098 479.747 279.162ZM483.694 279.578C483.603 279.532 483.492 279.575 483.485 279.686C483.455 280.163 483.36 280.63 483.196 281.08C483.157 281.185 483.123 281.292 483.082 281.397C483.039 281.508 482.979 281.614 482.943 281.725C482.905 281.84 482.871 281.943 482.815 282.053C482.755 282.169 482.692 282.281 482.642 282.401C482.614 282.466 482.681 282.707 482.782 282.619C482.874 282.539 482.945 282.452 483.017 282.354C483.097 282.246 483.183 282.139 483.261 282.03C483.402 281.835 483.509 281.571 483.584 281.345C483.742 280.87 483.832 280.373 483.849 279.874C483.853 279.761 483.803 279.632 483.694 279.578Z" fill="#F0997A"/>
<path d="M530.921 295.24C529.914 293.701 528.703 292.275 527.579 290.814C526.585 289.523 525.37 288.204 523.899 287.459C522.8 286.903 521.586 286.611 520.359 286.547C518.924 286.472 517.505 286.802 516.106 287.096C515.922 287.136 515.72 287.188 515.619 287.347C516.054 287.476 516.514 287.494 516.968 287.512C517.666 287.54 518.363 287.567 519.061 287.595C520.55 287.653 522.174 287.872 523.446 288.715C524.711 289.552 525.637 290.827 526.691 291.898C527.967 293.195 529.209 294.554 530.553 295.776C530.954 296.138 531.12 295.544 530.921 295.24ZM521 301.353C520.356 300.848 519.59 300.494 518.8 300.298C517.119 299.885 515.353 300.104 513.648 300.405C513.385 300.452 513.039 300.645 513.157 300.886C515.437 301.33 518.024 301.225 520.056 302.499C520.762 302.943 521.305 303.629 522.098 303.917C522.787 304.167 522.451 303.263 522.337 303.01C522.131 302.557 521.841 302.149 521.493 301.793C521.339 301.636 521.174 301.49 521 301.353ZM517.748 318.292C517.002 317.808 515.999 317.441 515.688 317.39C514.515 317.199 513.31 317.426 512.19 317.819C512.025 317.877 511.828 318.068 511.958 318.185C511.992 318.215 512.039 318.226 512.083 318.233C513.591 318.522 515.306 318.467 516.714 319.124C517.084 319.297 517.432 319.517 517.799 319.699C518.019 319.809 518.323 319.889 518.479 319.699C518.862 319.232 518.404 318.717 517.748 318.292Z" fill="#F0997A"/>
<path d="M454.587 292.406C456.734 293.515 457.232 296.12 457.017 297.449C456.825 298.636 456.511 299.572 455.99 300.434C454.773 302.452 452.751 300.653 452.952 298.08C453.504 295.749 453.817 295.076 454.587 292.406Z" fill="#FFBDA7"/>
<path opacity="0.6" d="M454.587 292.406C456.734 293.515 457.232 296.12 457.017 297.449C456.825 298.636 456.511 299.572 455.99 300.434C454.773 302.452 452.751 300.653 452.952 298.08C453.504 295.749 453.817 295.076 454.587 292.406Z" fill="#FF0000"/>
<path d="M457.044 296.419C456.123 295.729 455.151 294.605 454.375 293.135C454.443 292.908 454.513 292.67 454.589 292.406C456.264 293.272 456.932 295.048 457.044 296.419Z" fill="#FF0000"/>
<path d="M472.139 335.185C471.402 337.196 471.886 338.44 472.362 339.713C471.502 340.73 470.288 341.808 469.311 342.08C467.781 342.505 466.552 340.125 468.629 338.145C470.968 335.917 472.139 335.185 472.139 335.185Z" fill="#FFBDA7"/>
<path opacity="0.6" d="M472.139 335.185C471.402 337.196 471.886 338.44 472.362 339.713C471.502 340.73 470.288 341.808 469.311 342.08C467.781 342.505 466.552 340.125 468.629 338.145C470.968 335.917 472.139 335.185 472.139 335.185Z" fill="#FF0000"/>
<path d="M472.139 335.185C470.761 336.064 469.338 338.766 472.362 339.713C471.886 338.441 471.404 337.197 472.139 335.185Z" fill="#FF0000"/>
<path d="M538.167 356.154C539.195 361.988 541.672 366.322 545.313 368.428C546.849 369.307 548.534 369.753 550.292 369.753C552.484 369.753 554.8 369.084 557.117 367.746C558.962 366.681 560.759 365.219 562.431 363.461C569.912 355.658 575.361 341.885 575.361 329.35C575.361 325.151 574.755 321.436 573.627 318.364C572.327 314.822 570.307 312.146 567.682 310.635C565.08 309.137 561.755 308.881 558.468 310.275C559.434 310.931 560.235 311.389 561.238 311.982C561.999 311.794 562.394 311.775 562.679 311.775C564.028 311.775 565.292 312.11 566.445 312.777C567.794 313.557 568.959 314.759 569.913 316.332C571.821 319.454 572.886 324 572.886 329.35C572.886 341.514 567.572 354.841 560.364 362.061C558.94 363.498 557.429 364.699 555.879 365.591C552.436 367.585 549.216 367.821 546.553 366.284C543.755 364.674 541.735 361.194 540.769 356.524C539.938 356.425 539.071 356.314 538.167 356.154Z" fill="#FF0000"/>
<path d="M131.499 282.32C129.273 283.042 120.424 284.734 120.063 281.094C119.956 280.022 120.518 279.008 121.067 278.082C124.103 272.962 127.684 267.718 133.14 265.341C138.8 262.873 145.607 262.29 151.65 261.224C158.482 260.019 165.317 258.706 171.947 256.627C172.693 256.394 173.486 256.147 174.242 256.346C175.782 256.748 176.294 258.688 176.227 260.278C176.03 264.869 173.304 269.062 169.783 272.012C167.887 273.6 165.748 274.895 163.46 275.838C160.564 277.031 157.699 277.333 154.69 277.863C151.426 278.438 148.256 279.477 144.942 279.977C143.865 280.14 131.499 281.771 131.499 282.32Z" fill="#AF6152"/>
<path d="M242.921 237.409C220.83 255.681 198.739 273.952 176.649 292.224C149.48 270.254 129.096 245.61 112.612 214.803C134.703 196.531 156.793 178.259 178.884 159.988C195.37 190.795 215.751 215.438 242.921 237.409Z" fill="#FAFAFA" stroke="#FF0000" stroke-miterlimit="10"/>
<path d="M168.396 225.571C159.162 233.209 154.545 237.028 145.311 244.666C137.895 235.144 134.505 230.113 128.457 219.622C137.691 211.985 142.308 208.165 151.542 200.528C157.591 211.019 160.98 216.049 168.396 225.571Z" stroke="#37474F" stroke-miterlimit="10"/>
<path d="M197.972 256.662C188.738 264.3 184.121 268.119 174.887 275.757C165.717 267.848 161.412 263.575 153.449 254.504C162.683 246.867 167.301 243.047 176.534 235.41C184.495 244.481 188.801 248.754 197.972 256.662Z" stroke="#37474F" stroke-miterlimit="10"/>
<path d="M178.996 189.802C172.506 195.17 169.262 197.853 162.773 203.221C162.178 203.714 161.357 203.579 160.942 202.918C160.883 202.825 160.855 202.779 160.796 202.686C160.383 202.025 160.535 201.087 161.13 200.594C167.62 195.227 170.864 192.543 177.353 187.176C177.948 186.683 178.761 186.824 179.175 187.485C179.232 187.578 179.262 187.625 179.319 187.717C179.735 188.378 179.592 189.311 178.996 189.802Z" fill="#E0E0E0"/>
<path d="M189.814 190.91C180.716 198.435 176.166 202.198 167.068 209.724C166.474 210.215 165.633 210.095 165.196 209.45C165.135 209.359 165.105 209.314 165.042 209.223C164.606 208.577 164.739 207.653 165.334 207.16C174.432 199.635 178.982 195.871 188.08 188.346C188.676 187.853 189.508 187.981 189.943 188.626C190.004 188.718 190.034 188.762 190.097 188.853C190.534 189.499 190.409 190.417 189.814 190.91Z" fill="#E0E0E0"/>
<path d="M192.902 195.291C183.803 202.816 179.254 206.58 170.156 214.105C169.562 214.598 168.709 214.486 168.256 213.852C168.193 213.763 168.161 213.718 168.097 213.629C167.646 212.995 167.766 212.079 168.361 211.587C177.459 204.062 182.008 200.3 191.106 192.773C191.701 192.28 192.546 192.399 192.997 193.032C193.061 193.121 193.092 193.167 193.156 193.255C193.609 193.889 193.497 194.798 192.902 195.291Z" fill="#E0E0E0"/>
<path d="M206.252 224.407C199.762 229.774 196.518 232.458 190.029 237.825C189.433 238.316 188.513 238.263 187.975 237.7C187.9 237.62 187.862 237.581 187.786 237.501C187.25 236.938 187.301 236.079 187.896 235.586C194.385 230.219 197.629 227.535 204.119 222.168C204.714 221.676 205.629 221.736 206.165 222.301C206.241 222.38 206.278 222.419 206.354 222.499C206.891 223.062 206.848 223.915 206.252 224.407Z" fill="#E0E0E0"/>
<path d="M218.29 224.515C209.19 232.04 204.642 235.804 195.544 243.329C194.948 243.822 194.01 243.783 193.454 243.239C193.375 243.162 193.336 243.124 193.258 243.047C192.701 242.504 192.735 241.659 193.331 241.167C202.429 233.642 206.979 229.878 216.077 222.353C216.671 221.861 217.602 221.907 218.159 222.451C218.237 222.528 218.277 222.566 218.355 222.642C218.912 223.185 218.884 224.022 218.29 224.515Z" fill="#E0E0E0"/>
<path d="M222.2 228.188C213.102 235.714 208.553 239.477 199.455 247.002C198.86 247.494 197.911 247.467 197.34 246.937C197.259 246.863 197.22 246.825 197.139 246.751C196.569 246.22 196.591 245.387 197.187 244.895C206.285 237.37 210.835 233.606 219.933 226.081C220.527 225.588 221.47 225.623 222.04 226.154C222.121 226.228 222.16 226.266 222.241 226.341C222.812 226.871 222.795 227.697 222.2 228.188Z" fill="#E0E0E0"/>
<path d="M181.565 262.726C173.643 260.818 169.756 259.806 162.138 257.683C162.915 254.92 163.313 253.532 164.129 250.742C168.065 251.894 170.053 252.454 174.073 253.548C174.732 243.8 175.216 238.815 176.513 228.659C179.492 229.063 180.99 229.26 184.002 229.645C182.446 243.256 181.97 249.892 181.565 262.726Z" fill="#FF0000"/>
<path d="M15.8814 362.324C15.0664 380.928 25.9835 389.942 40.3132 382.527C41.479 381.923 90.5381 360.398 95.2559 357.909C102.162 354.256 107.343 355.766 116.499 353.85C125.647 351.922 128.625 347.202 133.929 342.995C136.585 340.893 138.687 339.949 141.008 338.531C143.328 337.114 145.856 335.232 147.099 334.805C150.973 333.475 158.636 336.197 163.927 337.426C169.217 338.663 176.234 342.403 180.654 342.369C186.267 342.329 188.647 338.636 186.541 336.079C184.388 333.46 181.689 331.803 181.689 331.803C181.689 331.803 184.032 329.637 187.68 325.851C191.337 322.057 189.454 317.319 189.454 317.319C189.454 317.319 192.186 313.257 193.932 310.542C195.678 307.828 195.202 302.699 193.927 300.088C192.641 297.467 184.322 291.058 184.322 291.058L188.229 292.166C192.62 297.931 197.729 298.154 200.319 297.341C202.919 296.527 202.579 293.485 201.347 289.861C200.114 286.237 198.975 280.309 195.797 278.542C192.62 276.775 188.723 275.451 181.639 272.814C174.546 270.176 170.834 270.013 167.134 269.624C163.433 269.225 148.836 268.122 137.662 268.333C126.498 268.534 126.238 270.24 123.726 273.295C120.216 277.57 117.399 279.838 107.386 293.064C101.947 300.246 90.2055 303.631 76.4692 306.421C70.36 307.661 58.0411 309.823 46.9323 313.576C45.7417 313.977 44.5147 314.495 43.2641 315.14C28.954 322.59 16.6964 343.711 15.8814 362.324ZM175.186 307.089C173.45 305.958 171.505 305.133 167.715 304.504C171.879 304.449 176.958 304.909 176.958 304.909L182.637 310.138L182.067 311.207C182.067 311.207 177.371 308.526 175.186 307.089ZM158.589 320.574C162.023 321.188 171.295 322.058 172.292 322.25C173.279 322.451 177.765 324.956 177.765 324.956L177.015 328.325C177.015 328.325 175.417 327.003 171.24 325.083C168.168 323.666 165.209 322.324 158.589 320.574Z" fill="#C8856A"/>
<path d="M15.8814 362.324C15.0664 380.928 25.9835 389.942 40.3132 382.527C41.479 381.923 89.3149 360.496 94.2284 358.419C101.846 355.197 107.343 355.765 116.499 353.848C125.647 351.921 128.625 347.2 133.929 342.994C136.585 340.892 138.687 339.948 141.008 338.53C143.328 337.113 145.856 335.231 147.099 334.803C150.973 333.473 158.636 336.196 163.927 337.424C169.217 338.662 176.234 342.402 180.654 342.368C186.267 342.327 188.647 338.634 186.541 336.077C184.388 333.459 181.689 331.802 181.689 331.802C181.689 331.802 184.032 329.636 187.68 325.85C191.337 322.055 189.454 317.318 189.454 317.318C189.454 317.318 192.186 313.256 193.932 310.541C195.678 307.826 195.202 302.698 193.927 300.087C192.641 297.466 184.322 291.057 184.322 291.057L188.229 292.165C192.62 297.93 197.729 298.153 200.319 297.339C202.919 296.526 202.579 293.483 201.347 289.86C200.114 286.236 198.975 280.308 195.797 278.541C192.62 276.774 188.723 275.449 181.639 272.812C174.546 270.174 170.834 270.011 167.134 269.623C163.433 269.224 148.836 268.121 137.662 268.332C126.498 268.533 126.238 270.238 123.726 273.294C120.216 277.568 117.399 279.837 107.386 293.062C101.947 300.245 90.2055 303.63 76.4692 306.419C70.36 307.659 58.0411 309.821 46.9323 313.574C45.7417 313.976 44.5147 314.494 43.2641 315.139C28.954 322.59 16.6964 343.711 15.8814 362.324ZM175.186 307.089C173.45 305.958 171.505 305.133 167.715 304.504C171.879 304.449 176.958 304.909 176.958 304.909L182.637 310.138L182.067 311.207C182.067 311.207 177.371 308.526 175.186 307.089ZM158.589 320.574C162.023 321.188 171.295 322.058 172.292 322.25C173.279 322.451 177.765 324.956 177.765 324.956L177.015 328.325C177.015 328.325 175.417 327.003 171.24 325.083C168.168 323.666 165.209 322.324 158.589 320.574Z" fill="#C8856A"/>
<path d="M97.2341 353.115C95.6432 353.007 94.021 353.015 92.4823 353.434C90.5876 353.95 88.912 355.062 87.3602 356.266C83.7533 359.062 81.3696 360.625 76.9569 363.786C73.5821 366.204 71.4553 368.003 67.3047 370.382C79.5623 364.898 91.8629 359.419 94.2271 358.42C100.383 355.817 105.155 355.687 111.589 354.723C107.298 354.47 101.554 353.411 97.2341 353.115Z" fill="#AF6152"/>
<path d="M147.014 282.514C148.638 282.931 150.345 282.848 152.011 282.931C157.016 282.985 162.035 282.775 167.026 282.588C168.692 282.497 170.271 282.558 171.787 283.122C176.409 284.9 184.322 291.059 184.322 291.059L188.229 292.168C191.606 296.6 195.402 297.751 198.155 297.68C196.737 296.947 195.62 295.535 194.777 293.734C193.396 290.778 195.56 288.796 195.826 288.493C196.09 288.19 192.673 290.054 189.294 289.591C186.724 289.239 182.169 287.861 178.951 286.397C176.839 284.748 174.595 283.281 172.101 282.247C170.477 281.6 168.648 281.527 166.994 281.605C161.98 281.785 157.004 282.187 152.002 282.449C150.34 282.534 148.669 282.701 147.014 282.514ZM182.065 311.207C182.065 311.207 188.527 315.065 189.453 317.32C188.993 313.768 186.365 312.326 184.773 309.95C184.336 309.3 180.083 304.59 177.619 302.866C175.156 301.142 171.417 302.133 166.182 302.211C160.946 302.289 156.052 300.691 152.281 299.027C154.772 301.706 163.497 303.601 167.717 304.505C170.687 304.489 173.776 304.635 176.959 304.91L182.638 310.139L182.065 311.207ZM159.479 319.274C155.149 318.592 154.701 317.588 150.714 313.897C151.475 317.377 156.135 320.183 158.589 320.574C162.023 321.188 171.295 322.058 172.292 322.25C173.28 322.45 177.765 324.957 177.765 324.957C177.117 326.455 176.868 327.579 177.012 328.329L181.69 331.807C181.69 331.807 183.885 329.768 187.321 326.22V326.219C187.321 326.219 182.977 328.672 180.912 327.668C178.846 326.664 180.199 324.683 178.484 323.693C176.769 322.703 172.635 320.764 171.103 320.416C169.571 320.068 163.81 319.956 159.479 319.274Z" fill="#AF6152"/>
<path d="M175.638 291.71C176.08 293.713 176.191 295.87 175.971 297.907C175.968 297.929 175.998 297.953 176.003 297.922C176.389 295.717 176.691 293.543 176.122 291.34C175.657 289.537 174.782 287.867 173.32 286.687C173.223 286.609 173.154 286.853 173.213 286.919C174.413 288.275 175.248 289.946 175.638 291.71ZM172.965 289.595C173.171 290.243 173.489 290.857 173.805 291.457C173.961 291.753 174.123 292.045 174.293 292.333C174.461 292.62 174.679 292.857 174.921 293.083C175.02 293.176 175.061 292.972 175.037 292.908C174.921 292.593 174.801 292.282 174.625 291.994C174.458 291.72 174.298 291.441 174.144 291.161C173.818 290.569 173.551 289.946 173.221 289.356C173.116 289.174 172.926 289.47 172.965 289.595ZM176.481 289.119C177.017 289.72 177.125 290.535 177.181 291.307C177.246 292.203 177.356 293.107 177.344 294.004C177.343 294.086 177.437 294.125 177.448 294.028C177.519 293.465 177.617 292.889 177.624 292.322C177.631 291.827 177.614 291.337 177.56 290.847C177.477 290.092 177.315 289.277 176.697 288.772C176.529 288.635 176.366 288.99 176.481 289.119Z" fill="#AF6152"/>
<path d="M173.989 314.707C173.954 314.78 173.988 315.015 174.098 314.891C174.555 314.379 174.825 313.725 174.963 313.06C175.09 312.454 175.121 311.845 174.97 311.24C174.928 311.072 174.749 311.248 174.75 311.35C174.762 311.94 174.741 312.545 174.602 313.12C174.468 313.675 174.235 314.196 173.989 314.707ZM170.338 313.907C170.376 314.034 170.52 313.995 170.566 313.894C170.673 313.655 170.711 313.368 170.752 313.109C170.793 312.863 170.84 312.62 170.893 312.377C170.999 311.91 171.106 311.447 171.249 310.991C171.271 310.921 171.277 310.797 171.188 310.767C171.099 310.737 171.029 310.837 171.003 310.907C170.819 311.394 170.649 311.892 170.531 312.398C170.473 312.642 170.423 312.888 170.378 313.135C170.336 313.371 170.269 313.673 170.338 313.907ZM172.235 314.844C172.174 315.504 172.102 316.195 172.219 316.852C172.247 317.005 172.388 316.923 172.41 316.815C172.667 315.577 172.712 314.289 172.92 313.04C173.024 312.408 173.149 311.781 173.298 311.159C173.439 310.566 173.671 309.967 173.744 309.361C173.772 309.118 173.504 309.206 173.436 309.348C173.177 309.886 173.045 310.497 172.898 311.074C172.74 311.691 172.604 312.315 172.491 312.94C172.373 313.572 172.294 314.207 172.235 314.844Z" fill="#AF6152"/>
<path d="M167.974 331.996C167.878 332.489 167.779 333.023 167.82 333.527C167.831 333.67 167.985 333.66 168.035 333.544C168.456 332.567 168.606 331.456 168.799 330.415C168.88 329.979 168.955 329.54 169.065 329.11C169.18 328.661 169.384 328.247 169.514 327.807C169.555 327.667 169.457 327.442 169.305 327.613C168.65 328.343 168.49 329.428 168.296 330.354C168.182 330.899 168.079 331.448 167.974 331.996ZM169.636 332.058C169.605 332.096 169.6 332.288 169.688 332.244C170.012 332.081 170.272 331.785 170.469 331.487C170.673 331.179 170.814 330.822 170.91 330.468C170.923 330.418 170.91 330.336 170.855 330.315C170.801 330.293 170.752 330.349 170.735 330.396C170.626 330.698 170.475 330.981 170.288 331.243C170.19 331.382 170.085 331.516 169.982 331.65C169.873 331.795 169.75 331.921 169.636 332.058ZM166.458 331.071C166.439 331.233 166.449 331.379 166.46 331.541C166.469 331.695 166.45 331.834 166.555 331.958C166.624 332.039 166.749 331.961 166.791 331.891C166.882 331.743 166.896 331.605 166.93 331.439C166.963 331.281 167.001 331.138 167.016 330.976C167.042 330.697 167.078 330.419 167.122 330.143C167.212 329.576 167.316 329.014 167.471 328.461C167.499 328.362 167.498 328.21 167.366 328.188C167.239 328.167 167.13 328.296 167.093 328.402C166.894 328.968 166.711 329.552 166.602 330.143C166.546 330.451 166.495 330.76 166.458 331.071Z" fill="#AF6152"/>
<path d="M171.977 272.546C172.873 275.041 173.443 277.609 173.536 280.261C173.54 280.382 173.651 280.331 173.664 280.243C174.041 277.524 173.634 274.689 172.347 272.248C172.209 271.988 171.905 272.346 171.977 272.546ZM174.664 274.594C174.61 274.65 174.585 274.744 174.608 274.819C174.671 275.023 174.758 275.218 174.822 275.42C174.883 275.617 174.936 275.817 174.977 276.019C175.02 276.229 175.048 276.44 175.076 276.651C175.104 276.854 175.103 277.063 175.157 277.26C175.194 277.395 175.331 277.27 175.345 277.191C175.426 276.754 175.345 276.272 175.253 275.842C175.161 275.424 175.044 274.963 174.825 274.592C174.784 274.527 174.709 274.549 174.664 274.594ZM170.58 275.332C170.599 275.848 170.691 276.362 170.854 276.854C170.932 277.088 171.043 277.361 171.189 277.563C171.27 277.675 171.359 277.786 171.441 277.898C171.515 277.998 171.588 278.09 171.683 278.172C171.789 278.263 171.858 278.014 171.83 277.946C171.776 277.822 171.712 277.706 171.65 277.586C171.592 277.473 171.557 277.367 171.518 277.249C171.479 277.133 171.416 277.023 171.373 276.908C171.331 276.8 171.296 276.689 171.256 276.58C171.086 276.114 170.987 275.632 170.956 275.137C170.948 275.021 170.835 274.978 170.739 275.025C170.629 275.079 170.576 275.213 170.58 275.332Z" fill="#AF6152"/>
<path d="M122.264 291.78C123.656 290.517 124.939 289.11 126.26 287.768C127.35 286.661 128.307 285.341 129.616 284.475C130.933 283.604 132.613 283.377 134.153 283.316C134.874 283.287 135.597 283.259 136.319 283.231C136.788 283.213 137.264 283.194 137.716 283.061C137.611 282.896 137.401 282.842 137.211 282.802C135.763 282.496 134.295 282.157 132.811 282.234C131.541 282.3 130.285 282.602 129.148 283.178C127.628 283.947 126.369 285.313 125.342 286.648C124.179 288.158 122.927 289.634 121.885 291.226C121.68 291.54 121.852 292.155 122.264 291.78ZM131.639 298.006C131.279 298.373 130.98 298.796 130.767 299.265C130.647 299.527 130.301 300.461 131.013 300.202C131.833 299.904 132.395 299.194 133.125 298.736C135.226 297.418 137.903 297.526 140.262 297.068C140.384 296.819 140.026 296.618 139.754 296.57C137.991 296.258 136.162 296.031 134.424 296.459C133.607 296.66 132.815 297.028 132.149 297.549C131.97 297.69 131.799 297.841 131.639 298.006ZM134.758 316.528C134.92 316.725 135.234 316.641 135.462 316.528C135.842 316.339 136.2 316.112 136.584 315.932C138.04 315.252 139.815 315.308 141.373 315.011C141.419 315.002 141.467 314.992 141.502 314.96C141.638 314.839 141.435 314.641 141.262 314.581C140.103 314.175 138.857 313.941 137.644 314.138C137.322 314.19 136.285 314.57 135.513 315.07C134.835 315.511 134.36 316.044 134.758 316.528Z" fill="#AF6152"/>
<path d="M200.85 288.295C198.629 289.441 198.114 292.136 198.336 293.512C198.534 294.739 198.959 295.408 199.496 296.3C200.756 298.388 202.748 296.827 202.541 294.164C201.971 291.752 201.648 291.055 200.85 288.295Z" fill="#C8856A"/>
<path opacity="0.2" d="M200.85 288.295C198.629 289.441 198.114 292.136 198.336 293.512C198.534 294.739 198.959 295.408 199.496 296.3C200.756 298.388 202.748 296.827 202.541 294.164C201.971 291.752 201.648 291.055 200.85 288.295Z" fill="white"/>
<path d="M198.31 292.444C199.261 291.73 200.268 290.568 201.071 289.047C201.001 288.813 200.929 288.565 200.85 288.294C199.117 289.189 198.424 291.027 198.31 292.444Z" fill="#AF6152"/>
<path d="M182.693 332.547C183.455 334.627 182.954 335.914 182.464 337.231C183.354 338.284 184.609 339.399 185.619 339.679C187.201 340.118 188.474 337.656 186.325 335.609C183.905 333.305 182.693 332.547 182.693 332.547Z" fill="#C8856A"/>
<path opacity="0.2" d="M182.693 332.547C183.455 334.627 182.954 335.914 182.464 337.231C183.354 338.284 184.609 339.399 185.619 339.679C187.201 340.118 188.474 337.656 186.325 335.609C183.905 333.305 182.693 332.547 182.693 332.547Z" fill="white"/>
<path d="M182.693 332.547C184.12 333.456 185.591 336.251 182.464 337.231C182.955 335.916 183.455 334.627 182.693 332.547Z" fill="#AF6152"/>
<path d="M263.824 70.8763L271.454 57.5442L242.829 40.9234C242.82 40.9182 242.811 40.913 242.803 40.9078L242.772 40.8895L242.771 40.8908C237.972 38.1472 231.358 38.5567 224.053 42.7738C209.398 51.2341 197.518 71.8126 197.518 88.7346C197.518 97.2132 200.502 103.165 205.32 105.929L205.319 105.93L234.176 122.684L242.014 108.987C253.248 100.326 262.09 84.906 263.824 70.8763Z" fill="#455A64"/>
<path d="M252.865 59.5015C238.211 67.9632 226.33 88.5403 226.33 105.462C226.33 122.384 238.209 129.243 252.865 120.783C267.519 112.321 279.4 91.7442 279.4 74.8222C279.4 57.9002 267.521 51.0399 252.865 59.5015Z" fill="#263238"/>
<path d="M279.823 79.4436L287.053 66.8091L272.764 58.5574C272.756 58.5522 272.747 58.5483 272.739 58.5431L272.709 58.5261L272.708 58.5274C268.161 55.9273 261.894 56.3145 254.971 60.3113C241.083 68.3296 229.826 87.8283 229.826 103.865C229.826 111.899 232.653 117.539 237.22 120.158L237.218 120.16L251.729 128.538L259.157 115.558C269.801 107.35 278.18 92.7379 279.823 79.4436Z" fill="#F5F5F5"/>
<path d="M230.629 96.0983C230.105 98.7337 229.826 101.342 229.826 103.864C229.826 111.898 232.653 117.537 237.22 120.157L237.218 120.158L251.729 128.537L259.157 115.557C259.878 115.001 260.586 114.41 261.285 113.797L230.629 96.0983Z" fill="#EBEBEB"/>
<path d="M269.439 68.6647C255.551 76.683 244.294 96.1817 244.294 112.218C244.294 128.255 255.551 134.754 269.439 126.736C283.327 118.717 294.584 99.2188 294.584 83.1822C294.584 67.1456 283.327 60.6464 269.439 68.6647Z" fill="#E0E0E0"/>
<path d="M362.723 143.179C364.901 149.428 362.804 152.2 360.681 154.431L347.536 164.818C347.536 164.818 325.275 154.973 318.349 154.242C315.388 153.931 308.923 153.215 309.099 157.8C309.154 159.071 309.721 160.262 310.33 161.37L288.934 170.323C283.47 164.359 282.103 162.831 277.397 157.462C271.312 150.51 271.055 147.143 268.85 139.379C267.538 134.754 266.172 131.481 264.617 128.979C262.358 125.287 259.694 123.258 256.232 121.053C252.878 118.916 248.875 116.509 244.33 113.858C244.303 113.329 244.29 112.775 244.29 112.221C244.29 96.1805 255.555 76.6792 269.446 68.6583C271.92 67.2278 274.32 66.2537 276.585 65.7203C282.894 70.4043 306.394 87.4984 315.131 92.7053C321.122 96.2757 335.715 103.457 341.611 105.567C348.752 108.109 351.458 108.231 354.595 115.602C357.76 123.027 360.762 128.085 363.318 132.698C365.861 137.297 364.156 141.475 362.723 143.179Z" fill="#FFA8A7"/>
<path d="M347.045 115.25C346.484 114.485 345.741 113.927 344.964 113.397C344.539 113.108 344.118 112.814 343.685 112.535C343.183 112.212 342.682 111.839 342.141 111.583C342.04 111.536 342.055 111.71 342.098 111.753C343.532 113.195 345.467 114.031 346.645 115.738C347.138 116.451 347.494 117.252 347.858 118.035C348.32 119.034 348.795 120.012 349.297 120.992C349.335 121.065 349.388 120.986 349.374 120.933C348.852 118.963 348.268 116.919 347.045 115.25Z" fill="#F28F8F"/>
<path d="M362.719 143.175C363.036 142.801 363.364 142.302 363.657 141.712C362.155 138.557 358.592 132.932 355.727 125.895C357.732 131.506 359.423 134.312 362.719 143.175Z" fill="#F28F8F"/>
<path d="M351.814 115.087C351.742 114.639 351.642 114.211 351.475 113.787C351.179 113.036 350.792 112.319 350.243 111.72C349.624 111.047 348.839 110.609 348.032 110.2C347.151 109.751 346.235 109.347 345.265 109.137C345.248 109.133 345.242 109.172 345.255 109.179C346.064 109.646 346.903 110.063 347.718 110.522C348.464 110.94 349.223 111.394 349.781 112.057C350.784 113.247 351.153 114.822 351.824 116.196C351.863 116.276 351.946 116.259 351.947 116.168C351.948 115.797 351.873 115.451 351.814 115.087Z" fill="#F28F8F"/>
<path d="M362.349 152.378C362.103 149.09 360.388 146.969 358.6 142.882C356.356 137.753 351.372 127.95 349.696 122.208C350.273 127.363 353.707 145.214 356.218 157.952L360.681 154.426C361.272 153.808 361.855 153.143 362.349 152.378Z" fill="#F28F8F"/>
<path d="M309.862 160.685C309.652 160.018 309.257 159.392 308.936 158.773C308.615 158.153 308.332 157.51 308.06 156.869C307.547 155.662 307.089 154.445 306.746 153.178C306.401 151.899 306.166 150.587 306.117 149.261C306.092 148.614 306.107 147.965 306.16 147.321C306.187 146.982 306.231 146.645 306.282 146.309C306.32 146.052 306.393 145.772 306.41 145.517C306.424 145.317 306.415 145.125 306.443 144.925C306.458 144.809 306.242 144.541 306.16 144.719C306.021 145.022 305.864 145.305 305.776 145.627C305.699 145.912 305.635 146.201 305.587 146.493C305.492 147.061 305.429 147.636 305.412 148.213C305.381 149.289 305.465 150.37 305.642 151.431C305.994 153.54 306.745 155.562 307.726 157.457C308.009 158.004 308.324 158.536 308.632 159.071C308.967 159.654 309.319 160.286 309.785 160.773C309.845 160.834 309.877 160.732 309.862 160.685Z" fill="#F28F8F"/>
<path d="M350.616 156.588L337.145 131.126C337.145 131.126 323.382 135.072 316.86 138.69C310.339 142.307 307.26 154.814 309.786 160.773L310.047 160.831C309.555 159.873 309.142 158.864 309.1 157.794C308.923 153.214 315.385 153.927 318.348 154.24C325.28 154.973 347.532 164.813 347.532 164.813L350.802 162.229L350.616 156.588Z" fill="#F28F8F"/>
<path d="M340.038 110.724C347.851 114.165 348.77 118.458 350.149 124.01C351.527 129.563 356.813 141.397 358.882 146.74C360.95 152.083 361.41 153.453 359.341 160.697C357.272 167.941 351.404 182.114 351.404 182.114C351.404 182.114 333.833 126.482 332.684 120.784C331.534 115.085 332.224 108.661 340.038 110.724Z" fill="#FFA8A7"/>
<path d="M357.596 156.973C357.576 157.006 357.566 157.029 357.583 157.067C357.828 157.148 358.205 156.981 358.455 156.931C358.77 156.869 359.085 156.813 359.402 156.763C359.704 156.716 360.023 156.693 360.346 156.674C360.386 156.466 360.423 156.265 360.456 156.068C359.66 156.164 358.867 156.337 358.119 156.62C357.918 156.695 357.707 156.789 357.596 156.973ZM357.561 153.197C358.355 152.927 359.133 152.667 359.968 152.556C360.183 152.528 360.401 152.513 360.617 152.505C360.594 152.292 360.565 152.08 360.529 151.868C360.293 151.883 360.058 151.907 359.824 151.938C358.955 152.058 358.05 152.306 357.295 152.765C357.043 152.918 357.326 153.277 357.561 153.197ZM360.179 154.026C359.681 154.045 359.182 154.098 358.69 154.182C357.705 154.351 356.665 154.639 355.806 155.163C355.588 155.296 355.877 155.582 356.065 155.516C356.919 155.222 357.752 154.914 358.646 154.747C359.073 154.667 359.505 154.613 359.941 154.588C360.164 154.575 360.403 154.585 360.643 154.588C360.658 154.394 360.668 154.205 360.675 154.018C360.505 154.014 360.337 154.021 360.179 154.026Z" fill="#F28F8F"/>
<path d="M352.487 145.476C350.223 141.232 346.132 132.034 344.173 126.189L337.145 124.01L334.818 128.49C339.773 145.287 351.405 182.113 351.405 182.113C351.405 182.113 352.274 180.009 353.462 177.015C353.464 177.009 355.034 164.005 355.74 158.181C356.447 152.353 354.749 149.719 352.487 145.476Z" fill="#F28F8F"/>
<path d="M327.167 177.425C326.73 177.129 326.297 176.837 325.871 176.524C320.056 172.254 313.862 167.85 310.331 161.373L288.928 170.325C294.384 176.293 297.101 178.546 300.573 181.691C304.046 184.837 314.585 189.157 321.463 192.601C328.265 196.005 331.195 197.757 332.919 196.785C334.864 195.687 337.336 184.335 327.167 177.425Z" fill="#FFA8A7"/>
<path d="M302.459 183.101C302.532 182.856 302.609 182.611 302.698 182.37C302.883 181.866 303.1 181.372 303.343 180.893C303.582 180.42 303.938 179.953 304.076 179.439C304.108 179.318 303.938 179.108 303.812 179.207C303.348 179.575 303.037 180.142 302.755 180.655C302.451 181.208 302.195 181.784 301.983 182.377C301.944 182.486 301.912 182.598 301.876 182.707C302.061 182.836 302.255 182.968 302.459 183.101Z" fill="#F28F8F"/>
<path d="M304.698 184.233C304.926 183.388 305.226 182.566 305.612 181.78C305.939 181.115 306.342 180.489 306.81 179.914C307.136 179.512 307.503 179.141 307.903 178.811C308.225 178.545 308.572 178.31 308.869 178.017C308.949 177.939 308.837 177.729 308.726 177.756C307.887 177.961 307.164 178.545 306.559 179.141C305.922 179.768 305.395 180.492 304.964 181.272C304.494 182.119 304.154 183.036 303.893 183.968C303.892 183.972 303.892 183.976 303.891 183.98C304.138 184.125 304.394 184.271 304.656 184.417C304.67 184.357 304.681 184.294 304.698 184.233Z" fill="#F28F8F"/>
<path d="M307.041 184.048C307.278 183.405 307.554 182.766 307.883 182.164C308.024 181.905 308.179 181.655 308.344 181.411C308.505 181.17 308.744 180.938 308.804 180.647C308.83 180.523 308.658 180.328 308.528 180.398C307.943 180.712 307.527 181.436 307.185 181.988C306.822 182.572 306.527 183.19 306.273 183.827C306.111 184.234 305.972 184.648 305.84 185.065C306.081 185.193 306.326 185.322 306.576 185.452C306.719 184.979 306.87 184.509 307.041 184.048Z" fill="#F28F8F"/>
<path d="M318.541 191.181C319.181 187.394 321.482 185.588 321.482 185.588C321.482 185.588 326.391 187.643 328.492 189.544C330.593 191.444 332.207 195.6 330.899 196.938C327.891 196.938 323.84 193.975 318.541 191.181Z" fill="#FFC4C3"/>
<path opacity="0.3" d="M318.541 191.181C319.16 191.507 319.76 191.835 320.346 192.161C320.841 190.38 321.483 187.677 321.483 185.588C321.483 185.588 319.181 187.395 318.541 191.181Z" fill="white"/>
<path d="M327.57 142.958C331.012 148.574 336.301 158.74 336.364 160.05C336.715 167.454 336.291 175.19 336.291 183.198C336.291 191.206 336.221 197.05 339.732 202.347C342.913 207.144 348.735 208.464 349.583 203.223C350.308 198.743 350.758 189.615 351.403 182.111C352.049 174.608 353.77 163.739 354.2 157.663C354.631 151.586 350.661 145.631 347.971 137.777C345.633 130.949 343.657 122.324 340 118.667C336.342 115.009 322.488 108.149 317.448 105.487L327.57 142.958Z" fill="#FFA8A7"/>
<path d="M353.822 158.152C353.391 158.184 352.956 158.183 352.525 158.16C351.603 158.107 350.745 157.867 349.849 157.674C349.625 157.626 349.679 157.95 349.816 158.02C350.656 158.458 351.689 158.613 352.624 158.673C353.108 158.705 353.597 158.694 354.079 158.652C354.092 158.651 354.109 158.65 354.123 158.649C354.139 158.465 354.152 158.289 354.166 158.113C354.05 158.128 353.936 158.143 353.822 158.152Z" fill="#F28F8F"/>
<path d="M348.664 152.711C348.516 152.786 348.708 153.048 348.84 153.017C349.9 152.764 350.973 152.649 352.055 152.837C352.531 152.919 352.994 153.057 353.441 153.237C353.582 153.294 353.718 153.365 353.855 153.433C353.803 153.191 353.748 152.949 353.687 152.706C353.207 152.513 352.709 152.369 352.197 152.288C351.03 152.105 349.732 152.173 348.664 152.711Z" fill="#F28F8F"/>
<path d="M350.716 154.671C349.866 154.649 349.004 154.7 348.172 154.884C347.464 155.042 346.432 155.219 345.97 155.831C345.949 155.858 345.958 155.928 346 155.931C346.388 155.954 346.779 155.814 347.155 155.724C347.56 155.626 347.965 155.532 348.378 155.471C349.146 155.357 349.923 155.308 350.699 155.361C351.457 155.413 352.21 155.536 352.942 155.741C353.387 155.866 353.803 156.035 354.215 156.218C354.204 155.927 354.191 155.638 354.163 155.347C353.851 155.235 353.537 155.134 353.23 155.05C352.41 154.824 351.566 154.694 350.716 154.671Z" fill="#F28F8F"/>
<path d="M350.969 186.398C350.67 186.304 350.37 186.217 350.069 186.136C349.451 185.969 348.829 185.824 348.199 185.705C348.065 185.681 347.911 185.759 347.901 185.905C347.89 186.059 348.045 186.167 348.178 186.192C348.757 186.301 349.331 186.429 349.9 186.582C350.177 186.656 350.454 186.737 350.729 186.823C350.827 186.853 350.926 186.885 351.025 186.918C351.037 186.755 351.048 186.591 351.062 186.428C351.03 186.419 350.999 186.408 350.969 186.398Z" fill="#F28F8F"/>
<path d="M349.086 184.349C349.724 184.537 350.352 184.76 350.961 185.027C351.029 185.057 351.093 185.091 351.161 185.122C351.178 184.897 351.196 184.675 351.213 184.452C351.191 184.443 351.168 184.433 351.146 184.424C350.497 184.163 349.833 183.941 349.156 183.765C348.484 183.59 347.807 183.461 347.118 183.371C346.421 183.28 345.617 183.176 344.924 183.332C344.793 183.362 344.856 183.576 344.964 183.598C345.679 183.739 346.413 183.779 347.131 183.902C347.791 184.013 348.446 184.16 349.086 184.349Z" fill="#F28F8F"/>
<path d="M348.036 182.573C348.924 182.774 349.808 183.015 350.668 183.314C350.876 183.387 351.08 183.474 351.285 183.554C351.3 183.37 351.315 183.19 351.33 183.009C351.185 182.958 351.045 182.896 350.899 182.848C349.952 182.538 348.995 182.327 348.009 182.191C347.753 182.157 347.849 182.531 348.036 182.573Z" fill="#F28F8F"/>
<path d="M350.615 192.564C347.312 189.373 343.835 190.511 343.835 190.511C343.835 190.511 343.136 194.85 343.374 198.659C343.613 202.468 346.128 204.337 348.053 204.662C349.976 204.986 350.244 201.231 350.615 192.564Z" fill="#FFC4C3"/>
<path opacity="0.3" d="M350.554 193.966C350.575 193.512 350.595 193.048 350.616 192.564C347.313 189.373 343.835 190.511 343.835 190.511C344.51 191.68 348.165 193.743 350.554 193.966Z" fill="white"/>
<path d="M341.867 119.689C340.337 117.605 338.045 116.375 335.794 115.228C334.533 114.585 333.264 113.944 332.093 113.143C332.024 113.096 332.006 113.242 332.048 113.278C333.837 114.86 335.973 115.958 337.948 117.277C338.894 117.908 339.784 118.625 340.541 119.476C341.446 120.495 342.129 121.708 342.677 122.95C343.274 124.306 343.772 125.707 344.311 127.088C344.352 127.193 344.437 127.126 344.427 127.037C344.115 124.479 343.416 121.798 341.867 119.689Z" fill="#F28F8F"/>
<path d="M382.561 267.22C356.176 279.091 329.791 290.963 303.406 302.834C287.592 268.685 276.623 234.149 269.461 197.21C295.846 185.339 322.231 173.467 348.617 161.596C355.779 198.534 366.75 233.068 382.561 267.22Z" fill="#FAFAFA" stroke="#FF0000" stroke-miterlimit="10"/>
<path d="M319.314 227.574C308.285 232.536 302.771 235.017 291.741 239.98C287.897 227.247 286.229 220.762 283.426 207.627C294.455 202.664 299.97 200.184 310.999 195.221C313.802 208.357 315.47 214.841 319.314 227.574Z" stroke="#37474F" stroke-miterlimit="10"/>
<path d="M335.566 271.665C324.537 276.628 319.022 279.108 307.993 284.071C302.712 272.05 300.318 265.893 296.039 253.354C307.069 248.391 312.583 245.911 323.612 240.948C327.89 253.487 330.285 259.643 335.566 271.665Z" stroke="#37474F" stroke-miterlimit="10"/>
<path d="M340.257 193.177C332.545 196.647 328.688 198.383 320.976 201.853C320.239 202.185 319.471 201.748 319.265 200.876C319.248 200.803 319.239 200.766 319.222 200.693C319.017 199.821 319.451 198.844 320.188 198.513C327.9 195.043 331.757 193.308 339.469 189.838C340.206 189.506 340.967 189.945 341.172 190.817C341.189 190.89 341.198 190.926 341.215 190.999C341.421 191.871 340.993 192.845 340.257 193.177Z" fill="#E0E0E0"/>
<path d="M350.151 198.035C339.322 202.906 333.907 205.343 323.079 210.215C322.342 210.546 321.56 210.116 321.336 209.252C321.317 209.179 321.307 209.142 321.289 209.07C321.066 208.206 321.485 207.234 322.222 206.902C333.051 202.03 338.465 199.593 349.295 194.721C350.031 194.39 350.807 194.823 351.03 195.687C351.048 195.76 351.059 195.796 351.077 195.869C351.301 196.734 350.888 197.703 350.151 198.035Z" fill="#E0E0E0"/>
<path d="M351.699 203.751C340.871 208.623 335.455 211.06 324.627 215.932C323.89 216.263 323.097 215.837 322.861 214.976C322.842 214.904 322.831 214.868 322.812 214.796C322.576 213.936 322.987 212.969 323.723 212.637C334.552 207.765 339.966 205.328 350.796 200.456C351.532 200.125 352.319 200.554 352.553 201.415C352.573 201.486 352.583 201.523 352.603 201.595C352.839 202.455 352.436 203.42 351.699 203.751Z" fill="#E0E0E0"/>
<path d="M354.447 239.624C346.735 243.094 342.878 244.83 335.166 248.3C334.429 248.631 333.58 248.231 333.274 247.401C333.248 247.332 333.235 247.297 333.21 247.228C332.903 246.4 333.257 245.457 333.994 245.126C341.705 241.656 345.563 239.92 353.274 236.45C354.011 236.119 354.855 236.523 355.16 237.352C355.186 237.421 355.199 237.456 355.224 237.525C355.53 238.353 355.184 239.292 354.447 239.624Z" fill="#E0E0E0"/>
<path d="M365.306 244.051C354.477 248.923 349.063 251.36 338.234 256.232C337.497 256.563 336.634 256.169 336.311 255.351C336.283 255.281 336.27 255.248 336.243 255.178C335.92 254.358 336.259 253.423 336.995 253.092C347.824 248.22 353.239 245.783 364.068 240.911C364.806 240.58 365.662 240.977 365.985 241.797C366.012 241.866 366.025 241.9 366.052 241.969C366.376 242.788 366.043 243.719 365.306 244.051Z" fill="#E0E0E0"/>
<path d="M367.516 249.46C356.687 254.332 351.272 256.769 340.443 261.641C339.705 261.972 338.834 261.584 338.498 260.771C338.469 260.704 338.455 260.668 338.427 260.601C338.092 259.787 338.421 258.857 339.159 258.526C349.987 253.654 355.401 251.217 366.231 246.345C366.968 246.014 367.835 246.405 368.17 247.219C368.198 247.287 368.212 247.321 368.241 247.39C368.576 248.202 368.252 249.129 367.516 249.46Z" fill="#E0E0E0"/>
<path d="M307.622 228.633C301.242 224.688 298.109 222.692 291.96 218.656C293.48 215.577 294.248 214.035 295.796 210.944C298.976 213.075 300.581 214.135 303.824 216.242C307.357 204.935 309.24 199.233 313.248 187.756C315.824 188.801 317.117 189.32 319.717 190.357C315.376 202.996 311.329 215.792 307.622 228.633Z" fill="#FF0000"/>
<path d="M340.038 110.724C347.851 114.165 348.77 118.458 350.149 124.01C351.527 129.563 356.813 141.397 358.882 146.74C360.95 152.083 361.41 153.453 359.341 160.697C357.272 167.941 351.404 182.114 351.404 182.114C351.404 182.114 333.833 126.482 332.684 120.784C331.534 115.085 332.224 108.661 340.038 110.724Z" fill="#FFA8A7"/>
<path d="M357.596 156.973C357.576 157.006 357.566 157.029 357.583 157.067C357.828 157.148 358.205 156.981 358.455 156.931C358.77 156.869 359.085 156.813 359.402 156.763C359.704 156.716 360.023 156.693 360.346 156.674C360.386 156.466 360.423 156.265 360.456 156.068C359.66 156.164 358.867 156.337 358.119 156.62C357.918 156.695 357.707 156.789 357.596 156.973ZM357.561 153.197C358.355 152.927 359.133 152.667 359.968 152.556C360.183 152.528 360.401 152.513 360.617 152.505C360.594 152.292 360.565 152.08 360.529 151.868C360.293 151.883 360.058 151.907 359.824 151.938C358.955 152.058 358.05 152.306 357.295 152.765C357.043 152.918 357.326 153.277 357.561 153.197ZM360.179 154.026C359.681 154.045 359.182 154.098 358.69 154.182C357.705 154.351 356.665 154.639 355.806 155.163C355.588 155.296 355.877 155.582 356.065 155.516C356.919 155.222 357.752 154.914 358.646 154.747C359.073 154.667 359.505 154.613 359.941 154.588C360.164 154.575 360.403 154.585 360.643 154.588C360.658 154.394 360.668 154.205 360.675 154.018C360.505 154.014 360.337 154.021 360.179 154.026Z" fill="#F28F8F"/>
<path d="M352.487 145.476C350.223 141.232 346.132 132.034 344.173 126.189L337.145 124.01L334.818 128.49C339.773 145.287 351.405 182.113 351.405 182.113C351.405 182.113 352.274 180.009 353.462 177.015C353.464 177.009 355.034 164.005 355.74 158.181C356.447 152.353 354.749 149.719 352.487 145.476Z" fill="#F28F8F"/>
<path d="M327.57 142.958C331.012 148.574 336.301 158.74 336.364 160.05C336.715 167.454 336.291 175.19 336.291 183.198C336.291 191.206 336.221 197.05 339.732 202.347C342.913 207.144 348.735 208.464 349.583 203.223C350.308 198.743 350.758 189.615 351.403 182.111C352.049 174.608 353.77 163.739 354.2 157.663C354.631 151.586 350.661 145.631 347.971 137.777C345.633 130.949 343.657 122.324 340 118.667C336.342 115.009 322.488 108.149 317.448 105.487L327.57 142.958Z" fill="#FFA8A7"/>
<path d="M353.822 158.152C353.391 158.184 352.956 158.183 352.525 158.16C351.603 158.107 350.745 157.867 349.849 157.674C349.625 157.626 349.679 157.95 349.816 158.02C350.656 158.458 351.689 158.613 352.624 158.673C353.108 158.705 353.597 158.694 354.079 158.652C354.092 158.651 354.109 158.65 354.123 158.649C354.139 158.465 354.152 158.289 354.166 158.113C354.05 158.128 353.936 158.143 353.822 158.152Z" fill="#F28F8F"/>
<path d="M348.664 152.711C348.516 152.786 348.708 153.048 348.84 153.017C349.9 152.764 350.973 152.649 352.055 152.837C352.531 152.919 352.994 153.057 353.441 153.237C353.582 153.294 353.718 153.365 353.855 153.433C353.803 153.191 353.748 152.949 353.687 152.706C353.207 152.513 352.709 152.369 352.197 152.288C351.03 152.105 349.732 152.173 348.664 152.711Z" fill="#F28F8F"/>
<path d="M350.716 154.671C349.866 154.649 349.004 154.7 348.172 154.884C347.464 155.042 346.432 155.219 345.97 155.831C345.949 155.858 345.958 155.928 346 155.931C346.388 155.954 346.779 155.814 347.155 155.724C347.56 155.626 347.965 155.532 348.378 155.471C349.146 155.357 349.923 155.308 350.699 155.361C351.457 155.413 352.21 155.536 352.942 155.741C353.387 155.866 353.803 156.035 354.215 156.218C354.204 155.927 354.191 155.638 354.163 155.347C353.851 155.235 353.537 155.134 353.23 155.05C352.41 154.824 351.566 154.694 350.716 154.671Z" fill="#F28F8F"/>
<path d="M350.969 186.398C350.67 186.304 350.37 186.217 350.069 186.136C349.451 185.969 348.829 185.824 348.199 185.705C348.065 185.681 347.911 185.759 347.901 185.905C347.89 186.059 348.045 186.167 348.178 186.192C348.757 186.301 349.331 186.429 349.9 186.582C350.177 186.656 350.454 186.737 350.729 186.823C350.827 186.853 350.926 186.885 351.025 186.918C351.037 186.755 351.048 186.591 351.062 186.428C351.03 186.419 350.999 186.408 350.969 186.398Z" fill="#F28F8F"/>
<path d="M349.086 184.349C349.724 184.537 350.352 184.76 350.961 185.027C351.029 185.057 351.093 185.091 351.161 185.122C351.178 184.897 351.196 184.675 351.213 184.452C351.191 184.443 351.168 184.433 351.146 184.424C350.497 184.163 349.833 183.941 349.156 183.765C348.484 183.59 347.807 183.461 347.118 183.371C346.421 183.28 345.617 183.176 344.924 183.332C344.793 183.362 344.856 183.576 344.964 183.598C345.679 183.739 346.413 183.779 347.131 183.902C347.791 184.013 348.446 184.16 349.086 184.349Z" fill="#F28F8F"/>
<path d="M348.036 182.573C348.924 182.774 349.808 183.015 350.668 183.314C350.876 183.387 351.08 183.474 351.285 183.554C351.3 183.37 351.315 183.19 351.33 183.009C351.185 182.958 351.045 182.896 350.899 182.848C349.952 182.538 348.995 182.327 348.009 182.191C347.753 182.157 347.849 182.531 348.036 182.573Z" fill="#F28F8F"/>
<path d="M350.615 192.564C347.312 189.373 343.835 190.511 343.835 190.511C343.835 190.511 343.136 194.85 343.374 198.659C343.613 202.468 346.128 204.337 348.053 204.662C349.976 204.986 350.244 201.231 350.615 192.564Z" fill="#FFC4C3"/>
<path opacity="0.3" d="M350.554 193.966C350.575 193.512 350.595 193.048 350.616 192.564C347.313 189.373 343.835 190.511 343.835 190.511C344.51 191.68 348.165 193.743 350.554 193.966Z" fill="white"/>
<path d="M341.867 119.689C340.337 117.605 338.045 116.375 335.794 115.228C334.533 114.585 333.264 113.944 332.093 113.143C332.024 113.096 332.006 113.242 332.048 113.278C333.837 114.86 335.973 115.958 337.948 117.277C338.894 117.908 339.784 118.625 340.541 119.476C341.446 120.495 342.129 121.708 342.677 122.95C343.274 124.306 343.772 125.707 344.311 127.088C344.352 127.193 344.437 127.126 344.427 127.037C344.115 124.479 343.416 121.798 341.867 119.689Z" fill="#F28F8F"/>
<path d="M554.072 128.531C554.072 128.531 550.786 135.557 554.517 141.7L560.794 142.252C560.794 142.252 557.778 138.954 559.013 130.517L554.072 128.531Z" fill="#455A64"/>
<path d="M143.813 58.71C143.813 58.71 146.481 65.9928 142.235 71.7917L135.933 71.7995C135.933 71.7995 139.222 68.7742 138.72 60.263L143.813 58.71Z" fill="#455A64"/>
<path d="M40.1697 126.836C40.1697 126.836 45.5448 132.429 52.6177 131.156L55.3887 125.497C55.3887 125.497 51.2276 127.126 43.7987 122.94L40.1697 126.836Z" fill="#455A64"/>
<path d="M402.469 132.845C402.469 132.845 405.978 139.763 413.116 140.608L417.418 136.002C417.418 136.002 412.963 136.346 407.078 130.177L402.469 132.845Z" fill="#455A64"/>
<path d="M339.495 56.162C339.495 56.162 343.005 63.0797 350.142 63.9247L354.444 59.319C354.444 59.319 349.988 59.6632 344.103 53.494L339.495 56.162Z" fill="#455A64"/>
<path d="M589.69 232.943C585.847 236.329 579.563 238.841 574.413 237.585C570.46 236.621 566.45 232.361 569.895 228.642C571.242 227.187 576.734 224.609 578.461 226.574C579.658 227.937 578.403 229.672 577.146 230.517C573.438 233.006 567.734 230.551 566.061 226.751C563.551 221.048 569.244 216.103 573.863 213.877C574.169 213.728 573.823 213.197 573.545 213.297C565.284 216.242 559.901 227.699 570.364 231.742C573.186 232.832 576.798 232.846 579.014 230.481C580.267 229.141 580.829 227.178 579.275 225.862C576.788 223.759 571.604 225.625 569.519 227.442C567.089 229.563 567.03 232.773 569.098 235.208C574.386 241.433 585.067 238.237 589.984 233.312C590.128 233.168 589.867 232.786 589.69 232.943Z" fill="#FF0000"/>
<path d="M473.142 100.18C470.967 104.981 471.882 117.035 479.551 116.329C483.65 115.95 488.039 109.999 484.538 106.524C484.342 106.329 484.024 106.405 483.841 106.579C474.743 115.197 488.421 131.405 498.089 122.268C498.391 121.983 497.799 121.812 497.58 121.971C493.222 125.142 488.142 124.439 484.681 120.379C483.258 118.71 482.227 116.631 481.91 114.452C481.673 112.816 481.828 108.948 483.626 108.055C484.461 107.641 483.639 107.41 484.299 107.952C484.707 108.287 484.771 109.001 484.804 109.501C484.882 110.694 484.324 111.946 483.634 112.89C482.106 114.985 479.423 116.125 477.046 114.725C472.297 111.928 472.439 104.821 473.8 100.242C473.896 99.919 473.249 99.9451 473.142 100.18Z" fill="#FF0000"/>
<path d="M473.258 63.9925C473.258 63.9925 465.561 64.9483 460.87 59.5015L462.285 53.361C462.285 53.361 464.49 57.2482 472.896 58.68L473.258 63.9925Z" fill="#FF0000"/>
<path d="M79.6939 63.9925C79.6939 63.9925 71.9964 64.9483 67.3059 59.5015L68.7207 53.361C68.7207 53.361 70.9258 57.2482 79.3314 58.68L79.6939 63.9925Z" fill="#FF0000"/>
<path d="M603.656 64.239C605.988 71.3901 595.967 83.945 588.527 78.0953C584.397 74.8483 583.901 65.8781 590.012 64.6289C590.359 64.5571 590.692 64.8336 590.831 65.1257C593.41 70.579 592.2 76.8108 585.28 77.3142C579.14 77.7601 573.66 73.3148 572.036 67.5629C571.94 67.2186 572.584 67.2056 572.703 67.4677C574.861 72.2364 579.006 76.2762 584.574 76.0767C586.539 76.0063 588.593 75.3608 589.87 73.7777C590.565 72.9158 590.939 71.8765 591.039 70.7798C591.123 69.867 590.93 66.6735 590.084 66.1506C588.383 65.0996 586.837 69.292 586.704 70.4656C586.453 72.668 587.105 75.3856 588.783 76.9347C591.567 79.5036 595.406 77.8684 597.922 75.7755C601.308 72.9575 603.663 68.7873 602.829 64.2872C602.754 63.8817 603.554 63.926 603.656 64.239Z" fill="#FF0000"/>
<path d="M106.311 144.224C101.968 144.928 96.8741 147.731 94.8998 151.835C93.3846 154.986 94.0261 159.969 98.3737 159.711C100.074 159.61 104.78 157.369 104.416 155.152C104.165 153.614 102.327 153.5 101.081 153.876C97.4061 154.98 95.9261 160.106 97.5365 163.289C99.9541 168.066 106.341 166.982 110.338 165.129C110.603 165.005 110.767 165.526 110.549 165.656C104.089 169.534 93.5489 166.861 96.5702 157.711C97.3852 155.244 99.3452 152.837 102.124 152.657C103.695 152.555 105.307 153.253 105.332 155.001C105.372 157.798 101.306 160.222 98.9631 160.616C96.2299 161.074 94.0666 159.363 93.5776 156.662C92.327 149.758 100.274 144.409 106.225 143.83C106.401 143.81 106.513 144.191 106.311 144.224Z" fill="#FF0000"/>
<path d="M54.2542 215.27C60.3034 214.315 69.6583 221.284 66.7634 227.867C64.3015 233.467 55.4656 236.668 53.5878 229.136C53.55 228.982 53.5878 228.761 53.7182 228.655C58.6317 224.682 63.5556 230.288 64.4293 235.126C65.7854 242.629 59.0412 245.744 52.542 244.576C52.3295 244.538 52.1847 244.045 52.4651 244.05C57.3746 244.144 63.7616 243.255 63.7682 237.044C63.7721 233.726 61.6791 229.234 58.1922 228.338C57.3225 228.115 56.158 228.034 55.3652 228.535C53.6217 229.637 54.8905 231.486 56.5362 232.257C59.1611 233.486 62.399 231.683 64.2506 229.838C70.5907 223.513 60.6412 216.128 54.3546 215.717C54.1655 215.706 54.0181 215.307 54.2542 215.27Z" fill="#FF0000"/>
<path d="M169.307 122.373C169.307 122.373 176.949 121.041 179.848 114.464L176.704 109.003C176.704 109.003 175.728 113.365 168.106 117.185L169.307 122.373Z" fill="#FF0000"/>
<path d="M597.298 172.059C597.298 172.059 604.084 175.817 610.467 172.514L611.445 166.289C611.445 166.289 607.949 169.073 599.617 167.265L597.298 172.059Z" fill="#FF0000"/>
<g opacity="0.4">
<path d="M589.69 232.943C585.847 236.329 579.563 238.841 574.413 237.585C570.46 236.621 566.45 232.361 569.895 228.642C571.242 227.187 576.734 224.609 578.461 226.574C579.658 227.937 578.403 229.672 577.146 230.517C573.438 233.006 567.734 230.551 566.061 226.751C563.551 221.048 569.244 216.103 573.863 213.877C574.169 213.728 573.823 213.197 573.545 213.297C565.284 216.242 559.901 227.699 570.364 231.742C573.186 232.832 576.798 232.846 579.014 230.481C580.267 229.141 580.829 227.178 579.275 225.862C576.788 223.759 571.604 225.625 569.519 227.442C567.089 229.563 567.03 232.773 569.098 235.208C574.386 241.433 585.067 238.237 589.984 233.312C590.128 233.168 589.867 232.786 589.69 232.943Z" fill="white"/>
<path d="M473.142 100.18C470.967 104.981 471.882 117.035 479.551 116.329C483.65 115.95 488.039 109.999 484.538 106.524C484.342 106.329 484.024 106.405 483.841 106.579C474.743 115.197 488.421 131.405 498.089 122.268C498.391 121.983 497.799 121.812 497.58 121.971C493.222 125.142 488.142 124.439 484.681 120.379C483.258 118.71 482.227 116.631 481.91 114.452C481.673 112.816 481.828 108.948 483.626 108.055C484.461 107.641 483.639 107.41 484.299 107.952C484.707 108.287 484.771 109.001 484.804 109.501C484.882 110.694 484.324 111.946 483.634 112.89C482.106 114.985 479.423 116.125 477.046 114.725C472.297 111.928 472.439 104.821 473.8 100.242C473.896 99.919 473.249 99.9451 473.142 100.18Z" fill="white"/>
<path d="M473.258 63.9925C473.258 63.9925 465.561 64.9483 460.87 59.5015L462.285 53.361C462.285 53.361 464.49 57.2482 472.896 58.68L473.258 63.9925Z" fill="white"/>
<path d="M79.6939 63.9925C79.6939 63.9925 71.9964 64.9483 67.3059 59.5015L68.7207 53.361C68.7207 53.361 70.9258 57.2482 79.3314 58.68L79.6939 63.9925Z" fill="white"/>
<path d="M603.656 64.239C605.988 71.3901 595.967 83.945 588.527 78.0953C584.397 74.8483 583.901 65.8781 590.012 64.6289C590.359 64.5571 590.692 64.8336 590.831 65.1257C593.41 70.579 592.2 76.8108 585.28 77.3142C579.14 77.7601 573.66 73.3148 572.036 67.5629C571.94 67.2186 572.584 67.2056 572.703 67.4677C574.861 72.2364 579.006 76.2762 584.574 76.0767C586.539 76.0063 588.593 75.3608 589.87 73.7777C590.565 72.9158 590.939 71.8765 591.039 70.7798C591.123 69.867 590.93 66.6735 590.084 66.1506C588.383 65.0996 586.837 69.292 586.704 70.4656C586.453 72.668 587.105 75.3856 588.783 76.9347C591.567 79.5036 595.406 77.8684 597.922 75.7755C601.308 72.9575 603.663 68.7873 602.829 64.2872C602.754 63.8817 603.554 63.926 603.656 64.239Z" fill="white"/>
<path d="M106.311 144.224C101.968 144.928 96.8741 147.731 94.8998 151.835C93.3846 154.986 94.0261 159.969 98.3737 159.711C100.074 159.61 104.78 157.369 104.416 155.152C104.165 153.614 102.327 153.5 101.081 153.876C97.4061 154.98 95.9261 160.106 97.5365 163.289C99.9541 168.066 106.341 166.982 110.338 165.129C110.603 165.005 110.767 165.526 110.549 165.656C104.089 169.534 93.5489 166.861 96.5702 157.711C97.3852 155.244 99.3452 152.837 102.124 152.657C103.695 152.555 105.307 153.253 105.332 155.001C105.372 157.798 101.306 160.222 98.9631 160.616C96.2299 161.074 94.0666 159.363 93.5776 156.662C92.327 149.758 100.274 144.409 106.225 143.83C106.401 143.81 106.513 144.191 106.311 144.224Z" fill="white"/>
<path d="M54.2542 215.27C60.3034 214.315 69.6583 221.284 66.7634 227.867C64.3015 233.467 55.4656 236.668 53.5878 229.136C53.55 228.982 53.5878 228.761 53.7182 228.655C58.6317 224.682 63.5556 230.288 64.4293 235.126C65.7854 242.629 59.0412 245.744 52.542 244.576C52.3295 244.538 52.1847 244.045 52.4651 244.05C57.3746 244.144 63.7616 243.255 63.7682 237.044C63.7721 233.726 61.6791 229.234 58.1922 228.338C57.3225 228.115 56.158 228.034 55.3652 228.535C53.6217 229.637 54.8905 231.486 56.5362 232.257C59.1611 233.486 62.399 231.683 64.2506 229.838C70.5907 223.513 60.6412 216.128 54.3546 215.717C54.1655 215.706 54.0181 215.307 54.2542 215.27Z" fill="white"/>
<path d="M169.307 122.373C169.307 122.373 176.949 121.041 179.848 114.464L176.704 109.003C176.704 109.003 175.728 113.365 168.106 117.185L169.307 122.373Z" fill="white"/>
<path d="M597.298 172.059C597.298 172.059 604.084 175.817 610.467 172.514L611.445 166.289C611.445 166.289 607.949 169.073 599.617 167.265L597.298 172.059Z" fill="white"/>
</g>
</svg>
